<mxfile host="app.diagrams.net" agent="Mozilla/5.0 (Windows NT 10.0; Win64; x64) AppleWebKit/537.36 (KHTML, like Gecko) Chrome/128.0.0.0 Safari/537.36" version="24.7.10">
  <diagram name="Page-1" id="z0DzeRFE-C07UqmTsZCE">
    <mxGraphModel dx="600" dy="1492" grid="1" gridSize="10" guides="1" tooltips="1" connect="1" arrows="1" fold="1" page="1" pageScale="1" pageWidth="827" pageHeight="1169" math="0" shadow="0">
      <root>
        <mxCell id="0" />
        <mxCell id="1" parent="0" />
        <mxCell id="nRd9bKDwkKoT_MK630dZ-31" value="" style="rounded=0;whiteSpace=wrap;html=1;" vertex="1" parent="1">
          <mxGeometry x="413.5" y="105" width="70" height="60" as="geometry" />
        </mxCell>
        <mxCell id="nRd9bKDwkKoT_MK630dZ-5" value="" style="sketch=0;html=1;aspect=fixed;strokeColor=none;shadow=0;fillColor=#3B8DF1;verticalAlign=top;labelPosition=center;verticalLabelPosition=bottom;shape=mxgraph.gcp2.gear" vertex="1" parent="1">
          <mxGeometry x="420.5" y="110.5" width="31.5" height="31.5" as="geometry" />
        </mxCell>
        <mxCell id="nRd9bKDwkKoT_MK630dZ-65" style="edgeStyle=orthogonalEdgeStyle;rounded=0;orthogonalLoop=1;jettySize=auto;html=1;exitX=0.75;exitY=0;exitDx=0;exitDy=0;entryX=0.75;entryY=1;entryDx=0;entryDy=0;" edge="1" parent="1" source="nRd9bKDwkKoT_MK630dZ-6" target="nRd9bKDwkKoT_MK630dZ-16">
          <mxGeometry relative="1" as="geometry" />
        </mxCell>
        <mxCell id="nRd9bKDwkKoT_MK630dZ-6" value="" style="rounded=0;whiteSpace=wrap;html=1;" vertex="1" parent="1">
          <mxGeometry x="150" y="230" width="150" height="190" as="geometry" />
        </mxCell>
        <mxCell id="nRd9bKDwkKoT_MK630dZ-7" value="Question 1" style="rounded=0;whiteSpace=wrap;html=1;" vertex="1" parent="1">
          <mxGeometry x="166" y="270" width="75" height="20" as="geometry" />
        </mxCell>
        <mxCell id="nRd9bKDwkKoT_MK630dZ-9" value="Question 2" style="rounded=0;whiteSpace=wrap;html=1;" vertex="1" parent="1">
          <mxGeometry x="166" y="300" width="75" height="20" as="geometry" />
        </mxCell>
        <mxCell id="nRd9bKDwkKoT_MK630dZ-13" value="Question 3" style="rounded=0;whiteSpace=wrap;html=1;" vertex="1" parent="1">
          <mxGeometry x="166" y="330" width="75" height="20" as="geometry" />
        </mxCell>
        <mxCell id="nRd9bKDwkKoT_MK630dZ-14" value="" style="sketch=0;html=1;aspect=fixed;strokeColor=none;shadow=0;fillColor=#3B8DF1;verticalAlign=top;labelPosition=center;verticalLabelPosition=bottom;shape=mxgraph.gcp2.gear" vertex="1" parent="1">
          <mxGeometry x="448.5" y="122.5" width="30" height="30" as="geometry" />
        </mxCell>
        <mxCell id="nRd9bKDwkKoT_MK630dZ-15" value="" style="sketch=0;html=1;aspect=fixed;strokeColor=none;shadow=0;fillColor=#3B8DF1;verticalAlign=top;labelPosition=center;verticalLabelPosition=bottom;shape=mxgraph.gcp2.gear" vertex="1" parent="1">
          <mxGeometry x="432" y="142" width="20" height="20" as="geometry" />
        </mxCell>
        <mxCell id="nRd9bKDwkKoT_MK630dZ-23" style="edgeStyle=orthogonalEdgeStyle;rounded=0;orthogonalLoop=1;jettySize=auto;html=1;exitX=0.25;exitY=0;exitDx=0;exitDy=0;entryX=0.25;entryY=1;entryDx=0;entryDy=0;" edge="1" parent="1" source="nRd9bKDwkKoT_MK630dZ-16" target="nRd9bKDwkKoT_MK630dZ-21">
          <mxGeometry relative="1" as="geometry" />
        </mxCell>
        <mxCell id="nRd9bKDwkKoT_MK630dZ-51" style="edgeStyle=orthogonalEdgeStyle;rounded=0;orthogonalLoop=1;jettySize=auto;html=1;exitX=0.25;exitY=1;exitDx=0;exitDy=0;entryX=0.5;entryY=0;entryDx=0;entryDy=0;" edge="1" parent="1" source="nRd9bKDwkKoT_MK630dZ-16" target="nRd9bKDwkKoT_MK630dZ-49">
          <mxGeometry relative="1" as="geometry" />
        </mxCell>
        <mxCell id="nRd9bKDwkKoT_MK630dZ-62" style="edgeStyle=orthogonalEdgeStyle;rounded=0;orthogonalLoop=1;jettySize=auto;html=1;exitX=1.001;exitY=0.429;exitDx=0;exitDy=0;entryX=0;entryY=0.25;entryDx=0;entryDy=0;exitPerimeter=0;" edge="1" parent="1" source="nRd9bKDwkKoT_MK630dZ-16" target="nRd9bKDwkKoT_MK630dZ-31">
          <mxGeometry relative="1" as="geometry" />
        </mxCell>
        <mxCell id="nRd9bKDwkKoT_MK630dZ-16" value="" style="rounded=0;whiteSpace=wrap;html=1;" vertex="1" parent="1">
          <mxGeometry x="150" y="60" width="150" height="140" as="geometry" />
        </mxCell>
        <mxCell id="nRd9bKDwkKoT_MK630dZ-19" value="1" style="ellipse;whiteSpace=wrap;html=1;" vertex="1" parent="1">
          <mxGeometry x="60" y="33" width="26" height="24" as="geometry" />
        </mxCell>
        <mxCell id="nRd9bKDwkKoT_MK630dZ-24" style="edgeStyle=orthogonalEdgeStyle;rounded=0;orthogonalLoop=1;jettySize=auto;html=1;exitX=0.75;exitY=1;exitDx=0;exitDy=0;entryX=0.75;entryY=0;entryDx=0;entryDy=0;" edge="1" parent="1" source="nRd9bKDwkKoT_MK630dZ-21" target="nRd9bKDwkKoT_MK630dZ-16">
          <mxGeometry relative="1" as="geometry" />
        </mxCell>
        <mxCell id="nRd9bKDwkKoT_MK630dZ-21" value="&lt;b&gt;Services&lt;/b&gt;" style="rounded=0;whiteSpace=wrap;html=1;" vertex="1" parent="1">
          <mxGeometry x="150" y="-5" width="150" height="35" as="geometry" />
        </mxCell>
        <mxCell id="nRd9bKDwkKoT_MK630dZ-22" value="Fetch Form" style="text;html=1;align=center;verticalAlign=middle;resizable=0;points=[];autosize=1;strokeColor=none;fillColor=none;" vertex="1" parent="1">
          <mxGeometry x="86" y="30" width="80" height="30" as="geometry" />
        </mxCell>
        <mxCell id="nRd9bKDwkKoT_MK630dZ-25" value="2" style="ellipse;whiteSpace=wrap;html=1;" vertex="1" parent="1">
          <mxGeometry x="308" y="86" width="24" height="24" as="geometry" />
        </mxCell>
        <mxCell id="nRd9bKDwkKoT_MK630dZ-39" value="3" style="ellipse;whiteSpace=wrap;html=1;" vertex="1" parent="1">
          <mxGeometry x="308" y="158.5" width="24" height="24" as="geometry" />
        </mxCell>
        <mxCell id="nRd9bKDwkKoT_MK630dZ-43" value="&lt;span style=&quot;font-size: 14px; text-wrap: nowrap;&quot;&gt;addFacts&lt;/span&gt;&lt;div&gt;&lt;span style=&quot;font-size: 14px; text-wrap: nowrap;&quot;&gt;addRules&lt;/span&gt;&lt;/div&gt;&lt;div&gt;&lt;span style=&quot;font-size: 14px; text-wrap: nowrap;&quot;&gt;engine.run&lt;/span&gt;&lt;/div&gt;" style="text;html=1;align=left;verticalAlign=middle;whiteSpace=wrap;rounded=0;" vertex="1" parent="1">
          <mxGeometry x="340" y="66.5" width="70" height="52" as="geometry" />
        </mxCell>
        <mxCell id="nRd9bKDwkKoT_MK630dZ-46" value="&lt;b&gt;useNewForm&lt;/b&gt;" style="text;html=1;align=center;verticalAlign=middle;whiteSpace=wrap;rounded=0;" vertex="1" parent="1">
          <mxGeometry x="156" y="64.5" width="70" height="13.5" as="geometry" />
        </mxCell>
        <mxCell id="nRd9bKDwkKoT_MK630dZ-48" value="showQuestions" style="rounded=0;whiteSpace=wrap;html=1;fillColor=#E8E8E8;" vertex="1" parent="1">
          <mxGeometry x="157.75" y="82.5" width="112.25" height="22.5" as="geometry" />
        </mxCell>
        <mxCell id="nRd9bKDwkKoT_MK630dZ-49" value="&lt;b&gt;F&lt;/b&gt;&lt;b style=&quot;background-color: initial;&quot;&gt;ormPage&lt;/b&gt;" style="text;html=1;align=center;verticalAlign=middle;whiteSpace=wrap;rounded=0;" vertex="1" parent="1">
          <mxGeometry x="150" y="230" width="70" height="21.5" as="geometry" />
        </mxCell>
        <mxCell id="nRd9bKDwkKoT_MK630dZ-50" value="Question 4" style="rounded=0;whiteSpace=wrap;html=1;" vertex="1" parent="1">
          <mxGeometry x="166" y="360" width="75" height="20" as="geometry" />
        </mxCell>
        <mxCell id="nRd9bKDwkKoT_MK630dZ-52" value="4" style="ellipse;whiteSpace=wrap;html=1;" vertex="1" parent="1">
          <mxGeometry x="80" y="203" width="24" height="24" as="geometry" />
        </mxCell>
        <mxCell id="nRd9bKDwkKoT_MK630dZ-53" value="State" style="text;html=1;align=center;verticalAlign=middle;resizable=0;points=[];autosize=1;strokeColor=none;fillColor=none;fontSize=14;" vertex="1" parent="1">
          <mxGeometry x="96" y="200" width="60" height="30" as="geometry" />
        </mxCell>
        <mxCell id="nRd9bKDwkKoT_MK630dZ-54" value="&lt;font color=&quot;#696969&quot;&gt;next group&lt;/font&gt;" style="rounded=0;whiteSpace=wrap;html=1;fillColor=#E6E6E6;strokeColor=#D9D9D9;" vertex="1" parent="1">
          <mxGeometry x="225" y="240" width="65" height="22.5" as="geometry" />
        </mxCell>
        <mxCell id="nRd9bKDwkKoT_MK630dZ-55" value="&lt;font color=&quot;#696969&quot;&gt;review&lt;/font&gt;" style="rounded=0;whiteSpace=wrap;html=1;fillColor=#E6E6E6;strokeColor=#D9D9D9;" vertex="1" parent="1">
          <mxGeometry x="192.5" y="390" width="65" height="22.5" as="geometry" />
        </mxCell>
        <mxCell id="nRd9bKDwkKoT_MK630dZ-59" value="canGoNext" style="rounded=0;whiteSpace=wrap;html=1;fillColor=#E8E8E8;" vertex="1" parent="1">
          <mxGeometry x="157.75" y="110" width="112.25" height="22.5" as="geometry" />
        </mxCell>
        <mxCell id="nRd9bKDwkKoT_MK630dZ-60" value="canGoReview" style="rounded=0;whiteSpace=wrap;html=1;fillColor=#E8E8E8;" vertex="1" parent="1">
          <mxGeometry x="157.75" y="138" width="112.25" height="22.5" as="geometry" />
        </mxCell>
        <mxCell id="nRd9bKDwkKoT_MK630dZ-61" value="&lt;span style=&quot;font-size: 14px; text-align: center; text-wrap: nowrap;&quot;&gt;events&lt;/span&gt;" style="text;html=1;align=left;verticalAlign=middle;whiteSpace=wrap;rounded=0;" vertex="1" parent="1">
          <mxGeometry x="340" y="162" width="51" height="18" as="geometry" />
        </mxCell>
        <mxCell id="nRd9bKDwkKoT_MK630dZ-63" style="edgeStyle=orthogonalEdgeStyle;rounded=0;orthogonalLoop=1;jettySize=auto;html=1;exitX=0;exitY=0.75;exitDx=0;exitDy=0;" edge="1" parent="1" source="nRd9bKDwkKoT_MK630dZ-31">
          <mxGeometry relative="1" as="geometry">
            <mxPoint x="301" y="150" as="targetPoint" />
          </mxGeometry>
        </mxCell>
        <mxCell id="nRd9bKDwkKoT_MK630dZ-64" value="formAnswers" style="rounded=0;whiteSpace=wrap;html=1;fillColor=#E8E8E8;" vertex="1" parent="1">
          <mxGeometry x="157.75" y="166" width="112.25" height="22.5" as="geometry" />
        </mxCell>
        <mxCell id="nRd9bKDwkKoT_MK630dZ-66" value="5" style="ellipse;whiteSpace=wrap;html=1;" vertex="1" parent="1">
          <mxGeometry x="300" y="203" width="24" height="24" as="geometry" />
        </mxCell>
        <mxCell id="nRd9bKDwkKoT_MK630dZ-67" value="update formAswers" style="text;html=1;align=center;verticalAlign=middle;resizable=0;points=[];autosize=1;strokeColor=none;fillColor=none;fontSize=14;" vertex="1" parent="1">
          <mxGeometry x="320" y="200" width="140" height="30" as="geometry" />
        </mxCell>
      </root>
    </mxGraphModel>
  </diagram>
</mxfile>
